<?xml version="1.0" encoding="utf-8"?>
<!-- Generator: Adobe Illustrator 16.0.0, SVG Export Plug-In . SVG Version: 6.00 Build 0)  -->
<!DOCTYPE svg PUBLIC "-//W3C//DTD SVG 1.1//EN" "http://www.w3.org/Graphics/SVG/1.1/DTD/svg11.dtd">
<svg version="1.1" id="Layer_1" xmlns="http://www.w3.org/2000/svg" xmlns:xlink="http://www.w3.org/1999/xlink" x="0px" y="0px"
	 width="120px" height="22px" viewBox="0 0 120 22" enable-background="new 0 0 120 22" xml:space="preserve">
<image display="none" overflow="visible" enable-background="new    " width="121" height="54" xlink:href="transip_logo.png"  transform="matrix(1 0 0 1 4.882813e-004 -17.6543)">
</image>
<path d="M12.7,12.4c-0.1,2.5-0.3,2.8-3.2,2.898H8.7c-2.4-0.1-3.1-0.6-3.1-2.699V6.7h9V4.6h-9V1.8H2.9v2.9H0v2.1h2.9V13.4
	c0,1,0.3,2.1,1.1,2.8c0.8,0.8,2.2,1.2,4.3,1.2h1.2c2.5,0,3.8-0.5,4.6-1.301c0.7-0.801,0.8-2,0.8-3.199v-1.5h-2.3v1H12.7z"/>
<path d="M30.6,5.5c-0.9-0.7-2.4-1-4.5-1H24c-1.4,0-3,0.3-3.9,1.5V4.6h-2.5v12.5h2.7V9.3c0-1.5,1-2.7,3.3-2.7H25
	c4,0.1,4.4,0.3,4.5,3.3v0.7H32V8.9C31.9,7.4,31.5,6.2,30.6,5.5z"/>
<path d="M48,13.7c0,0.7-0.3,1-1.2,1.3c-0.9,0.3-2.3,0.3-4.3,0.3h-3c-3.1-0.1-3.4-0.5-3.4-1.7V13.2c0-1.4,0.6-1.601,3.5-1.7h3.5
	c1.7,0,3,0,3.8,0.3c0.8,0.3,1.1,0.601,1.1,1.4V13.7z M43.4,4.5h-3.6c-2,0-3.5,0.2-4.4,0.8c-1,0.5-1.4,1.4-1.4,2.6v0.8h2.7V7.9
	c0-0.9,0.3-1.4,3.2-1.4h3.3c3.5,0,4.8,0.3,4.8,2.3v1.8c-0.8-0.9-2.1-1.1-4.6-1.1h-3.6c-2,0-3.5,0.1-4.6,0.5
	c-1.1,0.4-1.7,1.3-1.7,2.8v0.8c0,1.2,0.2,2.102,0.9,2.801c0.7,0.699,1.8,1,3.6,1h5.4c2.9,0,4-0.199,4.6-1v0.801h2.7V8.8
	C50.7,5,47.6,4.5,43.4,4.5z"/>
<path d="M69.1,5.7C68.2,4.9,66.7,4.4,64.6,4.4H61.2c-2.5,0-4.3,0.3-5.3,1.8V4.6h-2.5v12.5h2.7V10c0-2.7,1-3.5,6.3-3.5H63
	c4.4,0.1,4.7,1,4.7,2.7V17.1h2.7V8.8C70.3,7.6,70,6.5,69.1,5.7z"/>
<path d="M88.4,10.4c-1.102-0.5-2.5-0.6-4.2-0.6h-6c-2.4-0.1-2.5-0.5-2.5-1.4V8c0-0.7,0.1-0.9,0.6-1.1c0.5-0.2,1.5-0.3,3.101-0.3
	H83.3c1.2,0,2.2,0,2.8,0.2C86.7,7,87,7.3,87,8.2v0.3h2.5V7.7c0-0.9-0.2-1.8-1.1-2.3c-0.9-0.6-2.4-0.9-4.9-0.9H80
	c-2.8,0-4.5,0.3-5.6,0.8c-1,0.5-1.4,1.4-1.4,2.4v0.7c0,1.2,0.3,2.1,1.1,2.6c0.801,0.6,1.9,0.8,3.5,0.8h6.9
	c2.7,0.101,2.8,0.5,2.9,1.601v0.101c0,0.899-0.2,1.2-0.801,1.5C86,15.2,84.9,15.3,83.2,15.3h-4.9c-2.3,0-2.899-0.5-3-1.899V12.6
	h-2.5v0.9c0,1.9,0.8,2.9,2.101,3.4c1.199,0.5,2.899,0.5,4.5,0.5H83.6c2.7,0,6.4-0.102,6.4-3.7l0,0C90.1,11.9,89.4,10.9,88.4,10.4z"
	/>
<g>
	<g>
		<rect x="96.5" fill="#187DC1" width="2.7" height="2.2"/>
	</g>
</g>
<g>
	<g>
		<rect x="96.5" y="4.6" fill="#187DC1" width="2.7" height="12.5"/>
	</g>
</g>
<g>
	<g>
		<path fill="#187DC1" d="M117.3,12.2c0,2.7-1.3,3.1-4,3.1h-4c-2.399,0-4.1-0.399-4.2-3.2V9.8c0-2,1-3.3,3.9-3.3h4.5
			c3.1,0.1,3.8,1,3.8,3.3V12.2L117.3,12.2z M118,5.5c-1.2-0.8-2.8-1-4.4-1h-4.3c-1.8,0-3.399,0.5-4.3,1.6V4.6h-2.5v16.8h2.7V16.1
			C105.8,17,107,17.4,109,17.4h4.3c2.3,0,4-0.301,5.2-1.2c1.1-0.9,1.6-2.3,1.6-4.3V9.8C120,7.6,119.2,6.3,118,5.5z"/>
	</g>
</g>
</svg>
